<svg width="512" height="512" viewBox="0 0 512 512" fill="none" xmlns="http://www.w3.org/2000/svg">
<g filter="url(#filter0_i_1_2)">
<path fill-rule="evenodd" clip-rule="evenodd" d="M461 232.5C461 312.341 415.468 381.547 348.954 415.57C304.784 441.365 214.495 458.583 75.2614 485.134L75.2486 485.137C68.6104 486.403 61.861 487.69 55 489L150.112 408.955C90.1456 373.063 50 307.47 50 232.5C50 119.005 142.005 27 255.5 27C368.995 27 461 119.005 461 232.5ZM281.176 180.769C283.952 171.538 287.421 164.154 291.585 158.615C295.748 153.077 301.069 147.308 307.545 141.308C314.022 135.769 319.342 133 323.506 133C330.445 133 337.385 137.385 344.324 146.154C348.025 150.769 353.114 156.308 359.591 162.769C366.53 169.692 370 174.538 370 177.308C370 186.077 361.904 194.846 345.712 203.615C340.161 206.846 334.84 212.615 329.752 220.923C324.663 229.692 322.118 240.077 322.118 252.077C322.118 264.538 324.2 275.154 328.364 283.923C332.527 292.692 336.922 298.923 341.548 302.615C346.175 306.308 350.57 309.769 354.733 313C358.897 316.692 360.979 319.462 360.979 321.308C360.979 323.615 360.054 325.692 358.203 327.538C356.353 329.846 354.271 331 351.958 331C341.78 331 327.67 321.538 309.627 302.615C300.837 293.846 293.204 281.154 286.727 264.538C280.251 247.923 277.012 232 277.012 216.769C277.012 202 278.4 190 281.176 180.769ZM152.103 165.538C159.505 153.077 166.444 144.538 172.921 139.923C179.861 135.308 185.875 133 190.964 133C196.053 133 201.835 137.385 208.312 146.154C212.476 150.769 217.796 156.308 224.273 162.769C231.212 169.692 234.682 174.538 234.682 177.308C234.682 186.077 226.817 194.846 211.088 203.615C205.074 206.846 199.522 212.615 194.433 220.923C189.344 229.692 186.8 240.077 186.8 252.077C186.8 264.538 188.651 275.154 192.352 283.923C196.515 292.692 201.141 298.923 206.23 302.615C211.319 306.308 215.714 309.769 219.415 313C223.579 316.692 225.661 319.462 225.661 321.308C225.661 323.615 224.735 325.692 222.885 327.538C221.034 329.846 218.953 331 216.639 331C206.924 331 192.583 321.538 173.615 302.615C164.825 293.846 157.192 281.154 150.715 264.538C144.238 247.923 141 230.385 141 211.923C141 193.923 144.701 178.462 152.103 165.538Z" fill="#1D8D98"/>
</g>
<defs>
<filter id="filter0_i_1_2" x="50" y="27" width="415" height="470" filterUnits="userSpaceOnUse" color-interpolation-filters="sRGB">
<feFlood flood-opacity="0" result="BackgroundImageFix"/>
<feBlend mode="normal" in="SourceGraphic" in2="BackgroundImageFix" result="shape"/>
<feColorMatrix in="SourceAlpha" type="matrix" values="0 0 0 0 0 0 0 0 0 0 0 0 0 0 0 0 0 0 127 0" result="hardAlpha"/>
<feOffset dx="4" dy="8"/>
<feGaussianBlur stdDeviation="4"/>
<feComposite in2="hardAlpha" operator="arithmetic" k2="-1" k3="1"/>
<feColorMatrix type="matrix" values="0 0 0 0 1 0 0 0 0 1 0 0 0 0 1 0 0 0 1 0"/>
<feBlend mode="normal" in2="shape" result="effect1_innerShadow_1_2"/>
</filter>
</defs>
</svg>
