<svg width="1024" height="1024" viewBox="0 0 1024 1024" fill="none" xmlns="http://www.w3.org/2000/svg">
<g clip-path="url(#clip0_3_12)">
<mask id="mask0_3_12" style="mask-type:alpha" maskUnits="userSpaceOnUse" x="0" y="0" width="1024" height="1024">
<circle cx="512" cy="512" r="512" fill="#1D8D98"/>
</mask>
<g mask="url(#mask0_3_12)">
<circle cx="512" cy="512" r="512" fill="white"/>
<path d="M71 698C316.5 836 715 579 959 698V984H71V698Z" fill="#1D8D98"/>
<path d="M136.6 509.16C135.573 509.16 134.547 509.013 133.52 508.72C132.493 508.573 131.467 508.427 130.44 508.28C127.8 507.547 125.967 506.007 124.94 503.66C123.62 500.727 123.62 497.207 124.94 493.1C126.407 488.847 128.753 483.42 131.98 476.82C132.567 475.647 133.153 474.327 133.74 472.86C134.473 471.393 135.133 470 135.72 468.68C133.813 469.413 131.76 470.66 129.56 472.42C127.507 474.033 125.38 475.72 123.18 477.48C121.713 478.507 120.1 478.947 118.34 478.8C116.433 478.507 114.893 477.7 113.72 476.38C112.693 474.913 112.327 473.3 112.62 471.54C112.767 469.78 113.5 468.24 114.82 466.92C116.873 465.453 119 463.84 121.2 462.08C123.547 460.32 125.893 458.853 128.24 457.68C134.253 454.6 139.753 453.793 144.74 455.26C147.087 455.7 148.847 457.167 150.02 459.66C151.193 462.007 151.12 464.94 149.8 468.46C148.627 471.98 146.573 476.747 143.64 482.76C142.907 484.52 142.1 486.28 141.22 488.04C140.487 489.8 139.753 491.487 139.02 493.1C138.873 493.687 138.653 494.2 138.36 494.64C138.213 495.08 138.067 495.52 137.92 495.96C141 495.52 145.473 493.98 151.34 491.34C157.353 488.553 165.42 483.127 175.54 475.06C180.967 470.807 185.88 466.7 190.28 462.74C194.68 458.633 198.2 455.26 200.84 452.62C203.48 449.98 204.8 448.66 204.8 448.66C206.56 446.607 208.687 445.947 211.18 446.68C212.353 446.827 213.307 447.34 214.04 448.22C214.773 448.953 215.36 449.687 215.8 450.42C216.827 452.473 216.9 454.893 216.02 457.68C215.287 460.32 213.673 464.647 211.18 470.66C210.3 472.567 209.42 474.473 208.54 476.38C207.807 478.287 207.073 480.047 206.34 481.66C206.193 482.247 206.047 482.76 205.9 483.2C205.9 483.493 205.827 483.787 205.68 484.08C208.467 483.64 211.4 482.467 214.48 480.56C217.707 478.507 220.787 476.233 223.72 473.74C226.8 471.247 229.367 469.12 231.42 467.36C232.887 466.04 234.5 465.453 236.26 465.6C238.02 465.747 239.56 466.48 240.88 467.8C242.053 469.267 242.567 470.88 242.42 472.64C242.42 474.4 241.687 475.94 240.22 477.26C235.673 481.22 230.98 484.96 226.14 488.48C221.447 492 216.68 494.64 211.84 496.4C207.147 498.013 202.38 498.233 197.54 497.06C195.193 496.033 193.507 494.567 192.48 492.66C191.6 490.607 191.307 488.333 191.6 485.84C192.04 483.347 192.92 480.267 194.24 476.6C192.627 478.067 190.94 479.46 189.18 480.78C187.567 482.1 185.807 483.567 183.9 485.18C163.66 501.167 147.893 509.16 136.6 509.16Z" fill="#1D8D98"/>
<path d="M265.35 490.02C264.617 490.02 264.03 489.947 263.59 489.8C261.243 489.213 259.557 488.333 258.53 487.16C257.65 485.84 257.063 484.813 256.77 484.08C255.743 480.853 256.11 477.553 257.87 474.18C259.63 470.66 261.903 466.993 264.69 463.18C265.57 462.007 266.377 460.76 267.11 459.44C267.99 457.973 268.723 456.727 269.31 455.7C269.457 455.553 269.677 455.26 269.97 454.82C269.09 455.113 267.99 455.553 266.67 456.14C265.497 456.727 264.103 457.607 262.49 458.78C259.85 460.393 257.063 462.52 254.13 465.16C251.197 467.653 248.19 470.293 245.11 473.08C244.377 473.667 243.57 474.327 242.69 475.06C241.957 475.793 241.223 476.527 240.49 477.26C239.17 478.433 237.63 479.02 235.87 479.02C233.963 478.873 232.423 478.067 231.25 476.6C229.93 475.28 229.343 473.74 229.49 471.98C229.637 470.073 230.37 468.533 231.69 467.36C232.423 466.627 233.23 465.893 234.11 465.16C234.843 464.427 235.577 463.767 236.31 463.18C241.003 458.927 245.623 455.04 250.17 451.52C254.717 447.853 259.19 445.067 263.59 443.16C267.99 441.253 272.243 440.887 276.35 442.06C278.843 442.647 280.603 443.673 281.63 445.14C282.803 446.46 283.463 447.633 283.61 448.66C284.93 451.887 284.637 455.333 282.73 459C280.823 462.52 278.403 466.407 275.47 470.66C275.177 470.953 274.81 471.467 274.37 472.2C274.077 472.787 273.71 473.373 273.27 473.96C275.47 473.08 278.33 471.98 281.85 470.66C285.37 469.34 289.623 467.727 294.61 465.82C296.517 465.233 298.277 465.38 299.89 466.26C301.503 466.993 302.603 468.24 303.19 470C303.923 471.613 303.85 473.3 302.97 475.06C302.237 476.673 301.063 477.847 299.45 478.58C294.757 480.193 290.503 481.66 286.69 482.98C282.877 484.3 279.65 485.473 277.01 486.5C275.543 487.087 274.223 487.6 273.05 488.04C272.023 488.333 271.07 488.627 270.19 488.92C269.163 489.213 268.283 489.507 267.55 489.8C266.817 489.947 266.083 490.02 265.35 490.02Z" fill="#1D8D98"/>
<path d="M373.896 494.42C372.869 494.42 371.916 494.273 371.036 493.98C368.249 493.393 366.269 491.707 365.096 488.92C364.216 486.427 364.436 483.64 365.756 480.56C367.222 477.48 369.129 474.033 371.476 470.22C372.356 468.9 373.162 467.58 373.896 466.26C374.776 464.793 375.509 463.473 376.096 462.3C376.389 461.86 376.609 461.493 376.756 461.2C376.902 460.76 377.049 460.393 377.196 460.1C372.796 459.367 367.662 459.22 361.796 459.66C356.076 459.953 349.622 461.053 342.436 462.96C336.129 464.573 329.309 466.7 321.976 469.34C314.789 471.833 307.162 474.84 299.096 478.36C297.482 478.947 295.869 478.947 294.256 478.36C292.642 477.773 291.469 476.673 290.736 475.06C289.856 473.447 289.782 471.76 290.516 470C291.249 468.093 292.422 466.847 294.036 466.26C302.249 462.593 310.096 459.44 317.576 456.8C325.202 454.013 332.389 451.813 339.136 450.2C357.176 445.653 371.916 444.92 383.356 448C386.729 448.88 389.076 450.933 390.396 454.16C391.716 457.387 391.422 460.98 389.516 464.94C387.609 468.9 385.336 473.007 382.696 477.26C382.549 477.553 382.329 477.92 382.036 478.36C381.742 478.8 381.449 479.313 381.156 479.9C384.529 479.167 389.516 477.7 396.116 475.5C402.716 473.3 411.809 470.073 423.396 465.82C425.009 465.233 426.622 465.38 428.236 466.26C429.996 466.993 431.169 468.24 431.756 470C432.489 471.613 432.489 473.3 431.756 475.06C431.022 476.673 429.702 477.847 427.796 478.58C421.049 480.927 414.889 483.053 409.316 484.96C403.742 486.867 398.756 488.48 394.356 489.8C388.489 491.56 384.016 492.807 380.936 493.54C377.856 494.127 375.509 494.42 373.896 494.42Z" fill="#1D8D98"/>
<path d="M443.827 509.16C442.8 509.16 441.773 509.013 440.747 508.72C439.72 508.573 438.693 508.427 437.667 508.28C435.027 507.547 433.193 506.007 432.167 503.66C430.847 500.727 430.847 497.207 432.167 493.1C433.633 488.847 435.98 483.42 439.207 476.82C439.793 475.647 440.38 474.327 440.967 472.86C441.7 471.393 442.36 470 442.947 468.68C441.04 469.413 438.987 470.66 436.787 472.42C434.733 474.033 432.607 475.72 430.407 477.48C428.94 478.507 427.327 478.947 425.567 478.8C423.66 478.507 422.12 477.7 420.947 476.38C419.92 474.913 419.553 473.3 419.847 471.54C419.993 469.78 420.727 468.24 422.047 466.92C424.1 465.453 426.227 463.84 428.427 462.08C430.773 460.32 433.12 458.853 435.467 457.68C441.48 454.6 446.98 453.793 451.967 455.26C454.313 455.7 456.073 457.167 457.247 459.66C458.42 462.007 458.347 464.94 457.027 468.46C455.853 471.98 453.8 476.747 450.867 482.76C450.133 484.52 449.327 486.28 448.447 488.04C447.713 489.8 446.98 491.487 446.247 493.1C446.1 493.687 445.88 494.2 445.587 494.64C445.44 495.08 445.293 495.52 445.147 495.96C448.227 495.52 452.7 493.98 458.567 491.34C464.58 488.553 472.647 483.127 482.767 475.06C488.193 470.807 493.107 466.7 497.507 462.74C501.907 458.633 505.427 455.26 508.067 452.62C510.707 449.98 512.027 448.66 512.027 448.66C513.787 446.607 515.913 445.947 518.407 446.68C519.58 446.827 520.533 447.34 521.267 448.22C522 448.953 522.587 449.687 523.027 450.42C524.053 452.473 524.127 454.893 523.247 457.68C522.513 460.32 520.9 464.647 518.407 470.66C517.527 472.567 516.647 474.473 515.767 476.38C515.033 478.287 514.3 480.047 513.567 481.66C513.42 482.247 513.273 482.76 513.127 483.2C513.127 483.493 513.053 483.787 512.907 484.08C515.693 483.64 518.627 482.467 521.707 480.56C524.933 478.507 528.013 476.233 530.947 473.74C534.027 471.247 536.593 469.12 538.647 467.36C540.113 466.04 541.727 465.453 543.487 465.6C545.247 465.747 546.787 466.48 548.107 467.8C549.28 469.267 549.793 470.88 549.647 472.64C549.647 474.4 548.913 475.94 547.447 477.26C542.9 481.22 538.207 484.96 533.367 488.48C528.673 492 523.907 494.64 519.067 496.4C514.373 498.013 509.607 498.233 504.767 497.06C502.42 496.033 500.733 494.567 499.707 492.66C498.827 490.607 498.533 488.333 498.827 485.84C499.267 483.347 500.147 480.267 501.467 476.6C499.853 478.067 498.167 479.46 496.407 480.78C494.793 482.1 493.033 483.567 491.127 485.18C470.887 501.167 455.12 509.16 443.827 509.16Z" fill="#1D8D98"/>
<path d="M620.536 494.42C619.51 494.42 618.556 494.273 617.676 493.98C614.89 493.393 612.91 491.707 611.736 488.92C610.856 486.427 611.076 483.64 612.396 480.56C613.863 477.48 615.77 474.033 618.116 470.22C618.996 468.9 619.803 467.58 620.536 466.26C621.416 464.793 622.15 463.473 622.736 462.3C623.03 461.86 623.25 461.493 623.396 461.2C623.543 460.76 623.69 460.393 623.836 460.1C619.436 459.367 614.303 459.22 608.436 459.66C602.716 459.953 596.263 461.053 589.076 462.96C582.77 464.573 575.95 466.7 568.616 469.34C561.43 471.833 553.803 474.84 545.736 478.36C544.123 478.947 542.51 478.947 540.896 478.36C539.283 477.773 538.11 476.673 537.376 475.06C536.496 473.447 536.423 471.76 537.156 470C537.89 468.093 539.063 466.847 540.676 466.26C548.89 462.593 556.736 459.44 564.216 456.8C571.843 454.013 579.03 451.813 585.776 450.2C603.816 445.653 618.556 444.92 629.996 448C633.37 448.88 635.716 450.933 637.036 454.16C638.356 457.387 638.063 460.98 636.156 464.94C634.25 468.9 631.976 473.007 629.336 477.26C629.19 477.553 628.97 477.92 628.676 478.36C628.383 478.8 628.09 479.313 627.796 479.9C631.17 479.167 636.156 477.7 642.756 475.5C649.356 473.3 658.45 470.073 670.036 465.82C671.65 465.233 673.263 465.38 674.876 466.26C676.636 466.993 677.81 468.24 678.396 470C679.13 471.613 679.13 473.3 678.396 475.06C677.663 476.673 676.343 477.847 674.436 478.58C667.69 480.927 661.53 483.053 655.956 484.96C650.383 486.867 645.396 488.48 640.996 489.8C635.13 491.56 630.656 492.807 627.576 493.54C624.496 494.127 622.15 494.42 620.536 494.42Z" fill="#1D8D98"/>
<path d="M702.127 490.02C701.394 490.02 700.807 489.947 700.367 489.8C698.021 489.213 696.334 488.333 695.307 487.16C694.427 485.84 693.841 484.813 693.547 484.08C692.521 480.853 692.887 477.553 694.647 474.18C696.407 470.66 698.681 466.993 701.467 463.18C702.347 462.007 703.154 460.76 703.887 459.44C704.767 457.973 705.501 456.727 706.087 455.7C706.234 455.553 706.454 455.26 706.747 454.82C705.867 455.113 704.767 455.553 703.447 456.14C702.274 456.727 700.881 457.607 699.267 458.78C696.627 460.393 693.841 462.52 690.907 465.16C687.974 467.653 684.967 470.293 681.887 473.08C681.154 473.667 680.347 474.327 679.467 475.06C678.734 475.793 678.001 476.527 677.267 477.26C675.947 478.433 674.407 479.02 672.647 479.02C670.741 478.873 669.201 478.067 668.027 476.6C666.707 475.28 666.121 473.74 666.267 471.98C666.414 470.073 667.147 468.533 668.467 467.36C669.201 466.627 670.007 465.893 670.887 465.16C671.621 464.427 672.354 463.767 673.087 463.18C677.78 458.927 682.401 455.04 686.947 451.52C691.494 447.853 695.967 445.067 700.367 443.16C704.767 441.253 709.021 440.887 713.127 442.06C715.621 442.647 717.381 443.673 718.407 445.14C719.581 446.46 720.241 447.633 720.387 448.66C721.707 451.887 721.414 455.333 719.507 459C717.601 462.52 715.181 466.407 712.247 470.66C711.954 470.953 711.587 471.467 711.147 472.2C710.854 472.787 710.487 473.373 710.047 473.96C712.247 473.08 715.107 471.98 718.627 470.66C722.147 469.34 726.401 467.727 731.387 465.82C733.294 465.233 735.054 465.38 736.667 466.26C738.281 466.993 739.381 468.24 739.967 470C740.701 471.613 740.627 473.3 739.747 475.06C739.014 476.673 737.841 477.847 736.227 478.58C731.534 480.193 727.281 481.66 723.467 482.98C719.654 484.3 716.427 485.473 713.787 486.5C712.321 487.087 711.001 487.6 709.827 488.04C708.801 488.333 707.847 488.627 706.967 488.92C705.941 489.213 705.061 489.507 704.327 489.8C703.594 489.947 702.861 490.02 702.127 490.02Z" fill="#1D8D98"/>
<path d="M783.613 496.62C781.853 496.62 780.386 496.107 779.213 495.08C776.866 493.173 776.206 490.753 777.233 487.82C777.233 487.673 777.746 485.913 778.773 482.54C779.946 479.167 781.266 475.353 782.733 471.1C783.466 468.607 784.126 466.48 784.713 464.72C785.3 462.813 785.813 461.127 786.253 459.66C782.293 461.127 777.453 462.96 771.733 465.16C766.013 467.213 760 469.413 753.693 471.76C747.533 474.107 741.52 476.38 735.653 478.58C734.04 479.167 732.426 479.093 730.813 478.36C729.053 477.48 727.806 476.16 727.073 474.4C726.486 472.787 726.633 471.173 727.513 469.56C728.246 467.8 729.493 466.553 731.253 465.82C737.853 463.473 744.673 461.053 751.713 458.56C758.753 455.92 765.28 453.5 771.293 451.3C777.306 448.953 782.22 447.047 786.033 445.58C789.846 444.113 791.753 443.38 791.753 443.38C792.486 443.233 793.22 443.16 793.953 443.16C794.686 443.013 795.346 443.087 795.933 443.38C797.986 443.673 799.453 444.847 800.333 446.9C801.066 448.073 801.36 449.613 801.213 451.52C801.213 453.28 800.846 455.847 800.113 459.22C799.673 461.127 799.086 463.253 798.353 465.6C797.766 467.8 796.96 470.367 795.933 473.3C795.786 473.887 795.64 474.4 795.493 474.84C795.346 475.28 795.2 475.793 795.053 476.38C800.92 473.153 808.107 469.78 816.613 466.26C818.227 465.527 819.84 465.527 821.453 466.26C823.213 466.847 824.386 467.947 824.973 469.56C825.853 471.173 825.926 472.86 825.193 474.62C824.46 476.38 823.286 477.627 821.673 478.36C815.073 481.293 809.133 484.08 803.853 486.72C798.72 489.36 794.613 491.487 791.533 493.1C788.453 494.713 786.913 495.52 786.913 495.52C786.033 496.253 784.933 496.62 783.613 496.62Z" fill="#1D8D98"/>
<path d="M869.121 496.62C867.361 496.62 865.894 496.107 864.721 495.08C862.374 493.173 861.714 490.753 862.741 487.82C862.741 487.673 863.254 485.913 864.281 482.54C865.454 479.167 866.774 475.353 868.241 471.1C868.974 468.607 869.634 466.48 870.221 464.72C870.808 462.813 871.321 461.127 871.761 459.66C867.801 461.127 862.961 462.96 857.241 465.16C851.521 467.213 845.508 469.413 839.201 471.76C833.041 474.107 827.028 476.38 821.161 478.58C819.548 479.167 817.934 479.093 816.321 478.36C814.561 477.48 813.314 476.16 812.581 474.4C811.994 472.787 812.141 471.173 813.021 469.56C813.754 467.8 815.001 466.553 816.761 465.82C823.361 463.473 830.181 461.053 837.221 458.56C844.261 455.92 850.788 453.5 856.801 451.3C862.814 448.953 867.728 447.047 871.541 445.58C875.354 444.113 877.261 443.38 877.261 443.38C877.994 443.233 878.728 443.16 879.461 443.16C880.194 443.013 880.854 443.087 881.441 443.38C883.494 443.673 884.961 444.847 885.841 446.9C886.574 448.073 886.868 449.613 886.721 451.52C886.721 453.28 886.354 455.847 885.621 459.22C885.181 461.127 884.594 463.253 883.861 465.6C883.274 467.8 882.468 470.367 881.441 473.3C881.294 473.887 881.148 474.4 881.001 474.84C880.854 475.28 880.708 475.793 880.561 476.38C886.428 473.153 893.614 469.78 902.121 466.26C903.734 465.527 905.348 465.527 906.961 466.26C908.721 466.847 909.894 467.947 910.481 469.56C911.361 471.173 911.434 472.86 910.701 474.62C909.968 476.38 908.794 477.627 907.181 478.36C900.581 481.293 894.641 484.08 889.361 486.72C884.228 489.36 880.121 491.487 877.041 493.1C873.961 494.713 872.421 495.52 872.421 495.52C871.541 496.253 870.441 496.62 869.121 496.62Z" fill="#1D8D98"/>
<path fill-rule="evenodd" clip-rule="evenodd" d="M512 1024C794.77 1024 1024 794.77 1024 512C1024 229.23 794.77 0 512 0C229.23 0 0 229.23 0 512C0 794.77 229.23 1024 512 1024ZM512 971C765.499 971 971 765.499 971 512C971 258.501 765.499 53 512 53C258.501 53 53 258.501 53 512C53 765.499 258.501 971 512 971Z" fill="#1D8D98"/>
</g>
</g>
<defs>
<clipPath id="clip0_3_12">
<rect width="1024" height="1024" fill="white"/>
</clipPath>
</defs>
</svg>
